<svg viewBox="0 0 322 40" xmlns="http://www.w3.org/2000/svg" fill="currentColor">
  <path d="M0 40V10.5393H24.1706V15.8398H29.6583V40H21.7659V18.9214H7.83078V40H0Z"/>
  <path d="M41.3741 40V34.7612H35.9481V10.5393H43.7789V31.6179H57.714V10.5393H65.6064V34.7612H60.1187V40H41.3741Z"/>
  <path d="M73.1005 40V10.5393H91.845V15.8398H94.8664V10.5393H108.247V15.8398H113.611V40H105.842V18.9214H97.2711V40H89.4403V18.9214H80.9313V40H73.1005Z"/>
  <path d="M121.152 40V10.5393H139.896V15.8398H142.918V10.5393H156.298V15.8398H161.662V40H153.893V18.9214H145.322V40H137.492V18.9214H128.982V40H121.152Z"/>
  <path d="M174.027 40V34.7612H168.601V15.8398H174.027V10.5393H192.771V15.8398H198.259V24.1602H190.367V18.9214H176.432V21.0169H187.345V29.4607H176.432V31.6179H190.367V26.2558H198.259V34.6995H192.771V40H174.027Z"/>
  <path d="M205.753 40V15.8398H211.179V10.5393H229.924V15.8398H235.411V24.1602H227.519V18.9214H213.584V40H205.753Z"/>
  <path d="M242.906 40V10.5393H250.736V40H242.906ZM242.906 8.44376V0H250.736V8.44376H242.906Z"/>
  <path d="M257.056 40V10.5393H281.227V15.8398H286.714V40H278.822V18.9214H264.887V40H257.056Z"/>
  <path d="M297.768 40V34.7612H292.342V15.8398H297.768V10.5393H316.512V15.8398H322V34.7612H316.512V40H297.768ZM300.172 31.6179H314.108V18.9214H300.172V31.6179Z"/>
</svg>